<svg xmlns="http://www.w3.org/2000/svg" viewBox="0 0 50 50" width="500" height="500"><path fill="none" stroke="#000" stroke-miterlimit="10" stroke-width="2" d="M27 19V4a1 1 0 0 0-1-1h-2a1 1 0 0 0-1 1v15"/><path fill="none" stroke="#000" stroke-miterlimit="10" stroke-width="2" d="M23 5c-5.308 0-9.768 3.811-10.782 8.832-.068.261-.12.561-.156.906-.023.085-.053.155-.062.262-.075.896-.285 2.009-.54 3.126-.078.343-.16.687-.245 1.025l-.031.123a75.466 75.466 0 0 1-.83 2.999c-.416 1.041-.87 2.134-1.323 3.223C7.049 30.254 4 36.175 4 39c-.003.152.034 1.046 1.04 2.068 1.107 1.125 4.378 2.385 8.994 3.168C14.38 46.263 19.15 47 25 47c5.853 0 10.625-.7 10.967-2.764 4.615-.783 7.887-2.043 8.993-3.168C45.966 40.046 46.003 39.152 46 39c0-2.825-3.049-8.746-5.029-13.504a258.938 258.938 0 0 1-1.323-3.222l-.06-.2-.009-.032-.126-.43-.042-.145a51.233 51.233 0 0 1-.119-.418l-.033-.117a57.576 57.576 0 0 1-.154-.56l-.034-.127a62.053 62.053 0 0 1-.126-.473l-.044-.17a45.921 45.921 0 0 1-.156-.615l-.009-.039c-.048-.193-.094-.387-.14-.581l-.041-.179C38.292 17.05 38.076 15.913 38 15c-.009-.107-.039-.177-.062-.262a6.247 6.247 0 0 0-.156-.906C36.768 8.811 32.308 5 27 5"/><path fill="none" stroke="#000" stroke-linecap="round" stroke-linejoin="round" stroke-miterlimit="10" stroke-width="2" d="M23 28v-5s-1.768-2-4.643-2C15.313 21 14 23.875 14 26s4 2 4 2"/><path d="M30 37.06v-.059h-.039l.039.059z"/><path fill="none" stroke="#000" stroke-miterlimit="10" stroke-width="2" d="M10.353 22.273C11.583 19.375 14.417 18 17 18l1 .001c2.875 0 5 1 5 1h4s2.125-1 5-1L33 18c2.583 0 5.417 1.375 6.647 4.273"/><path fill="none" stroke="#000" stroke-linecap="round" stroke-linejoin="round" stroke-miterlimit="10" stroke-width="2" d="M20 9s-2.875.938-4 4"/><path fill="none" stroke="#000" stroke-linecap="round" stroke-miterlimit="10" stroke-width="2" d="M14 44s1.375-1.063 2-3m20 3s-.531-.625-1-2"/><path fill="none" stroke="#000" stroke-linecap="round" stroke-linejoin="round" stroke-miterlimit="10" stroke-width="2" d="M23 31h4v-2a2 2 0 0 0-2-2h0a2 2 0 0 0-2 2v2zm9-3s4 .125 4-2-1.313-5-4.357-5C28.768 21 27 23 27 23v5m9-2c0 2-2 8-2 8"/><path d="M24 32h2v6h-2zm5 6h-2v-6l2 2zm-8 0h2v-6l-2 2z"/><path fill="none" stroke="#000" stroke-linecap="round" stroke-linejoin="round" stroke-miterlimit="10" stroke-width="2" d="M14 26c0 2 2 8 2 8m2-6h5v3l-5 7h14l-5-7v-3h5"/></svg>